<?xml version="1.0" encoding="UTF-8" standalone="no"?>
<!-- Created with Inkscape (http://www.inkscape.org/) -->
<svg
   xmlns:dc="http://purl.org/dc/elements/1.1/"
   xmlns:cc="http://web.resource.org/cc/"
   xmlns:rdf="http://www.w3.org/1999/02/22-rdf-syntax-ns#"
   xmlns:svg="http://www.w3.org/2000/svg"
   xmlns="http://www.w3.org/2000/svg"
   xmlns:sodipodi="http://sodipodi.sourceforge.net/DTD/sodipodi-0.dtd"
   xmlns:inkscape="http://www.inkscape.org/namespaces/inkscape"
   sodipodi:docbase="C:\DOCUME~1\James\デスク~1"
   sodipodi:docname="MOLUME~1.SVG"
   inkscape:version="0.44+devel"
   sodipodi:version="0.32"
   version="1.0"
   x="0.00000000"
   y="0.00000000"
   width="405.67279"
   height="159.84554"
   id="svg2"
   inkscape:output_extension="org.inkscape.output.svg.inkscape"
   sodipodi:modified="true">
  <metadata
     id="metadata10">
    <rdf:RDF>
      <cc:Work
         rdf:about="">
        <dc:format>image/svg+xml</dc:format>
        <dc:type
           rdf:resource="http://purl.org/dc/dcmitype/StillImage" />
        <dc:title>Woman eyes</dc:title>
        <dc:date>12 07 2005</dc:date>
        <dc:creator>
          <cc:Agent>
            <dc:title>Lumen Design Studio</dc:title>
          </cc:Agent>
        </dc:creator>
        <cc:license
           rdf:resource="http://web.resource.org/cc/PublicDomain" />
        <dc:subject>
          <rdf:Bag>
            <rdf:li>Woman eyes</rdf:li>
            <rdf:li>eyebrows</rdf:li>
            <rdf:li>lady</rdf:li>
            <rdf:li>eye</rdf:li>
            <rdf:li>eyebrow</rdf:li>
            <rdf:li>sight</rdf:li>
            <rdf:li>pupil</rdf:li>
          </rdf:Bag>
        </dc:subject>
        <dc:description>Woman eyes</dc:description>
      </cc:Work>
      <cc:License
         rdf:about="http://web.resource.org/cc/PublicDomain">
        <cc:permits
           rdf:resource="http://web.resource.org/cc/Reproduction" />
        <cc:permits
           rdf:resource="http://web.resource.org/cc/Distribution" />
        <cc:permits
           rdf:resource="http://web.resource.org/cc/DerivativeWorks" />
      </cc:License>
    </rdf:RDF>
  </metadata>
  <sodipodi:namedview
     inkscape:current-layer="svg2"
     inkscape:window-y="-19"
     inkscape:window-x="155"
     inkscape:cy="79.922768"
     inkscape:cx="202.8364"
     inkscape:zoom="2.115005"
     id="base"
     pagecolor="#ffffff"
     bordercolor="#666666"
     borderopacity="1.0"
     inkscape:pageopacity="0.0"
     inkscape:pageshadow="2"
     inkscape:window-width="943"
     inkscape:window-height="845"
     height="265px"
     width="744.09448px" />
  <defs
     id="defs3" />
  <path
     style="fill:#b9b9b9;fill-opacity:1"
     d="M 317.14494,1.5080839 C 313.20632,0.87583305 315.21753,7.1698748 311.42619,8.1955839 C 310.70103,11.430004 312.02734,15.091331 312.83244,18.101834 C 314.22211,14.988063 318.33591,15.881862 320.23869,14.976834 C 318.03244,11.307022 316.94829,6.7794673 318.28359,2.4239922 C 318.62621,1.2501696 318.18563,1.4130089 317.14494,1.5080839 z M 14.738692,1.5393339 C 10.341792,3.0257345 -0.1002378,-1.6375181 0.2699424,4.5393339 C 0.4038977,27.728832 -0.031684105,51.125796 0.4886924,74.195584 C 3.1428536,82.757955 -1.2445681,91.483518 0.5511924,99.914334 C 2.8442868,105.27798 10.626007,98.779879 13.301192,104.50808 C 15.731555,107.03582 14.33868,112.62837 17.613692,113.97683 C 20.079419,111.45366 24.144482,110.99758 26.988692,113.38308 C 29.504438,114.77959 32.51164,115.22596 35.144942,116.60183 C 31.046853,117.7933 26.33135,118.43693 25.957442,123.57058 C 24.381439,129.55682 14.762287,131.82255 11.801192,125.75808 C 10.218222,122.0555 5.7686244,123.52874 4.8949424,127.07058 C 3.6334455,129.73216 -0.8040336,128.59594 0.2074424,132.19558 C -0.5227757,136.84444 0.5233125,139.96558 5.7913817,139.11219 C 11.927856,140.38702 18.587011,139.25493 24.488692,140.94558 C 28.898099,144.0917 23.234125,151.20511 28.769942,153.60183 C 30.920301,155.5902 29.456915,158.93496 26.769942,159.44558 C 36.799933,159.34494 49.942908,159.89388 58.051192,159.32058 C 54.19687,158.32706 55.692408,153.4912 59.176192,153.38308 C 63.574406,152.54682 59.105016,147.88066 62.769942,145.82058 C 71.409342,143.46416 81.223943,143.25573 90.301192,144.13308 C 94.420298,144.45268 96.115108,149.70071 92.613692,152.13308 C 91.519726,153.34223 87.204122,155.60289 89.113692,156.00808 C 91.298981,152.98008 97.199348,157.29804 93.207442,159.53933 C 108.88534,159.4757 124.89317,159.64103 140.36369,159.41433 C 139.82884,153.41833 135.76067,147.548 137.92619,141.32058 C 142.71902,141.58245 147.37372,138.25668 152.05119,140.13308 C 156.2834,139.21895 161.01145,145.80356 155.92619,147.94558 C 152.64958,147.92373 149.51717,149.58963 149.20744,153.25808 C 148.93716,155.77571 146.46546,161.1856 151.33244,159.53933 C 168.67812,159.32444 186.10647,159.87593 203.39494,159.41433 C 207.13176,158.5382 211.70551,158.56624 214.98869,157.53933 C 215.82516,154.43981 221.55651,152.48449 221.42619,157.00808 C 220.32902,160.46136 226.44323,158.5949 228.76912,159.39234 C 242.30949,159.71152 256.0198,160.02421 269.45744,158.97683 C 274.59562,157.33779 279.4256,152.9172 281.48869,148.44558 C 278.25188,145.42706 275.69817,142.06011 272.58244,139.07058 C 270.26194,135.12241 274.87331,131.07153 275.23869,127.72683 C 272.12871,127.85532 267.1678,124.85228 270.58244,121.57058 C 278.12426,118.95399 287.33763,120.14977 295.51994,119.03933 C 299.58187,119.73796 306.33855,115.83364 308.33244,121.10183 C 309.5228,127.9818 318.85488,125.8209 322.89646,130.08892 C 331.59962,134.79242 324.47223,133.56931 318.76994,132.97683 C 315.03775,132.41777 308.60158,133.53301 309.70744,138.57058 C 308.56717,142.83963 306.73012,147.40346 308.89494,151.57058 C 308.57578,157.49077 314.92749,160.68952 320.14494,159.32058 C 325.6293,159.33367 332.95151,160.73179 337.30119,157.97683 C 334.87877,157.08647 328.90105,153.96759 334.35114,153.45345 C 340.87111,151.68422 347.80487,147.93387 350.67619,141.85183 C 347.2594,141.5731 343.39691,140.68232 342.23869,136.88308 C 343.57679,137.18161 348.68113,133.83318 344.73869,135.07058 C 340.80324,136.43292 337.96292,131.88954 340.51994,128.78933 C 341.05577,126.67648 344.86334,123.21606 340.89494,122.28933 C 337.84378,121.92159 332.02407,118.65979 336.30119,115.72683 C 344.37526,113.33119 353.40718,115.16716 361.83207,114.41041 C 376.15561,114.28589 390.47979,114.17209 404.80119,113.88308 C 404.95744,102.60183 405.11369,91.320584 405.26994,80.039334 C 393.35602,80.753107 381.41543,82.314449 369.76994,83.508084 C 366.74456,84.648292 359.59677,87.772313 358.89494,82.226834 C 358.53337,76.314276 365.93916,75.53433 369.73869,72.633084 C 373.21363,70.178674 377.63106,70.790494 381.30119,69.539334 C 382.69941,68.581106 385.31954,64.507102 383.30119,63.476834 C 376.12667,66.503915 368.55375,68.745863 360.55119,68.976834 C 359.42316,69.104234 347.37692,70.246331 350.86369,69.914334 C 354.90628,69.529515 358.53493,71.215571 362.36369,72.320584 C 338.49609,81.757803 312.77165,84.003752 287.58244,87.664334 C 273.24869,90.040363 258.49228,89.634673 244.26994,86.976834 C 234.06126,84.843541 243.20975,83.036064 248.442,82.541265 C 271.12271,79.721485 294.44192,80.473295 316.45744,74.070584 C 280.44568,78.583018 244.27752,83.203698 207.96076,85.024289 C 180.7675,86.519528 153.39764,85.855934 126.26994,86.851834 C 119.28909,88.55629 116.54615,80.355019 111.36369,77.851834 C 106.80953,77.578364 104.74133,69.248299 110.55119,69.039334 C 113.76421,68.418843 117.05348,71.090576 118.01994,73.133084 C 120.15372,71.032148 124.05341,72.013341 125.70744,72.789334 C 126.31335,70.987136 128.96408,68.245229 130.23869,70.820584 C 131.68369,68.429566 134.10106,66.171678 133.01994,62.789334 C 132.20182,60.008417 133.56421,55.783511 132.42619,53.695584 C 128.65963,54.722266 124.53351,49.673855 129.01994,47.570584 C 130.62075,46.818235 134.2663,44.599095 130.61369,43.883084 C 125.96054,40.905593 131.81694,36.200111 134.48869,35.789334 C 130.98282,34.959177 131.64328,30.533908 135.14494,30.789334 C 138.18207,30.975478 141.17213,30.165352 140.48869,26.351834 C 141.71618,20.137718 140.53738,13.411869 143.39494,7.5080839 C 144.40257,11.077891 144.89017,11.641764 147.58244,9.9143339 C 151.35784,8.409764 151.4103,13.590568 151.48869,15.476834 C 152.24758,14.223004 153.50463,8.6959471 156.83244,11.320584 C 159.68096,13.13242 155.1972,16.310425 158.92619,16.539334 C 166.28976,20.355924 160.51677,29.641472 162.08244,35.476834 C 163.44868,37.070939 166.30455,36.881937 164.64494,39.883084 C 163.10175,46.277163 165.5681,52.687238 165.86369,58.914334 C 165.1015,61.480857 169.06647,63.379683 167.20744,66.476834 C 165.24536,69.443605 168.47203,66.628088 170.14494,67.039334 C 172.76264,67.94342 173.2209,71.311685 173.08244,73.758084 C 176.67833,74.987959 181.26385,71.840326 178.76994,68.133084 C 176.13319,63.377495 179.94103,56.620704 179.48869,50.945584 C 179.3388,46.742738 178.01329,42.51606 181.73869,39.476834 C 184.46914,36.912706 184.57149,33.178029 183.30119,30.008084 C 183.0383,25.003242 182.72866,19.254553 184.61369,14.820584 C 182.94189,11.263546 188.27502,8.543696 189.89494,12.351834 C 191.92748,14.105861 187.65243,15.410781 190.17619,17.226834 C 192.77402,23.238061 187.59175,29.830256 191.20744,35.633084 C 191.98361,37.215705 191.31527,43.024716 192.23869,42.133084 C 193.23621,36.836588 201.86389,41.510314 197.26994,45.195584 C 197.978,48.330062 195.38095,50.193419 193.11369,50.601834 C 194.26447,52.838222 198.22634,58.42126 194.17619,56.664334 C 194.57588,58.28934 193.8646,60.352703 196.20744,60.289334 C 197.69101,56.316888 197.58281,61.656636 197.64494,60.726834 C 202.50885,58.074567 193.89531,57.493379 197.55119,52.414334 C 199.25321,47.896085 198.35135,43.01427 201.01994,38.726834 C 202.16034,35.697571 198.41938,32.203322 202.76994,32.664334 C 199.93247,28.360531 204.38575,23.455675 203.11369,18.726834 C 202.68625,11.976603 206.19561,3.9846884 213.95744,3.8518339 C 220.40681,2.3713725 227.00273,2.2166457 233.58244,1.5393339 C 178.05546,1.8746894 121.61151,0.82426187 66.644942,2.4143339 C 67.51279,5.1388044 66.845151,8.4077495 65.707442,10.851834 C 63.73296,12.26257 61.541505,13.777687 62.676192,16.039334 C 63.591967,13.851308 65.310072,19.028364 64.738692,20.414334 C 62.742486,23.630891 64.94564,28.270871 64.613692,31.664334 C 67.270556,31.524857 66.805098,27.594052 69.926192,27.976834 C 72.881174,29.524112 71.727165,33.698896 69.113692,34.758084 C 68.858759,36.992938 65.905289,37.873775 64.926192,37.476834 C 65.999331,40.828564 62.803026,43.213847 60.488692,45.039334 C 65.300237,47.200495 65.19103,38.420259 69.957442,38.976834 C 67.442922,36.898141 73.637912,36.265149 75.676192,36.226834 C 81.821867,36.153272 87.782836,39.747203 93.488692,39.945584 C 96.66229,37.680863 90.486717,38.555829 89.551192,37.258084 C 83.885004,35.25852 73.823082,37.223358 71.988692,29.570584 C 71.455314,25.374802 73.247291,23.444121 76.707442,27.008084 C 79.202337,29.271675 83.169701,28.757879 83.926192,25.289334 C 86.27523,21.812494 91.581359,22.800953 94.519942,21.633084 C 94.936953,19.068296 93.841317,19.187479 91.519942,19.601834 C 86.029804,20.852757 85.116208,13.973231 85.957442,10.101834 C 87.119148,5.081999 92.569094,5.9482629 96.238692,6.7580839 C 100.51332,6.3138342 105.92741,3.6632711 109.61369,6.2580839 C 112.5617,1.6904608 113.60961,8.2941208 112.80119,10.789334 C 109.51569,10.637522 109.4678,15.32387 107.80435,15.218085 C 106.52545,13.468618 103.60873,11.240672 102.36369,14.320584 C 101.43553,16.630093 97.41134,18.335006 100.73869,20.539334 C 96.805486,23.928533 104.77282,23.360838 106.64494,22.945584 C 109.60307,21.364751 114.69214,23.524265 112.61369,27.351834 C 110.32686,34.155211 103.89237,37.948571 100.23869,43.726834 C 98.731402,45.949745 102.86845,49.446664 103.45744,45.820584 C 103.60783,41.953451 109.01521,35.711932 112.14494,40.726834 C 114.38356,47.036333 112.2765,53.978244 111.61369,60.445584 C 102.81417,62.52185 99.545482,51.323331 92.707442,48.258084 C 90.599872,46.479917 90.361858,52.383477 87.394942,51.664334 C 84.210824,51.945942 80.907263,48.257328 83.957442,45.726834 C 85.549948,44.135279 78.946154,46.485804 77.457442,46.539334 C 71.230915,47.94806 64.869416,52.336502 58.457442,50.945584 C 56.325232,49.862721 58.706161,45.934941 55.894942,49.101834 C 54.424619,50.511392 51.443216,52.101876 52.301192,54.570584 C 60.789464,52.530359 69.270721,49.674093 77.832442,48.633084 C 83.18929,50.319517 79.239759,57.370147 75.301192,58.351834 C 72.717899,60.73792 73.406071,55.277339 70.457442,56.851834 C 69.11205,57.088768 64.300556,58.356345 67.801192,58.945584 C 72.183768,60.37426 70.160437,65.55316 67.457442,67.508084 C 67.701261,69.82067 64.574848,72.071745 68.363692,71.445584 C 74.544221,71.846859 71.433583,81.621525 66.301192,80.195584 C 63.966706,78.945634 60.139091,76.404888 62.082442,73.320584 C 60.095179,73.336359 57.774612,74.151291 58.863692,76.633084 C 54.406545,79.087616 62.296779,80.218896 63.363692,82.539334 C 64.838033,87.381684 57.798635,86.483352 55.082442,85.820584 C 53.215667,86.82122 58.180197,86.352543 58.87109,87.39795 C 64.692337,87.940764 58.764512,90.598856 56.301192,91.570584 C 54.079494,93.024102 51.550208,90.117039 50.988692,89.820584 C 52.316216,94.806893 45.188252,95.658909 42.676192,92.508084 C 40.272866,91.431438 43.664618,95.985723 44.738692,96.601834 C 49.346202,100.02509 44.150368,106.08442 40.738692,108.44558 C 37.59548,111.88349 28.733067,111.05723 31.051192,104.97683 C 29.994876,99.837164 24.814665,96.331001 25.238692,90.664334 C 29.101316,91.276676 33.565621,89.318522 32.832442,84.664334 C 33.375717,77.15975 33.076081,69.942888 32.853714,62.41456 C 32.385302,53.213533 35.191596,44.71663 38.707442,36.383084 C 39.420432,32.159761 39.974216,27.855739 40.238692,23.476834 C 39.504233,18.911456 38.72831,12.245933 43.769942,9.8518339 C 42.407825,8.1592898 41.657541,4.5258767 43.832442,3.0080839 C 38.414934,0.36415605 31.628162,2.293939 25.738692,1.5393339 C 22.071909,1.5057778 18.405489,1.5062564 14.738692,1.5393339 z M 43.207442,92.789334 C 43.311085,92.75682 43.164512,92.731672 43.207442,92.789334 z M 197.64494,60.726834 C 197.56307,61.125682 198.04379,60.644967 197.64494,60.726834 z M 52.488692,1.9768339 C 52.351197,3.6843672 51.534867,6.0701518 53.926192,4.6018339 C 55.158757,2.3997574 58.427714,4.5858251 58.926192,3.6330839 C 59.296401,2.2664419 55.061676,3.0988326 53.769942,1.9143339 C 53.513707,2.0526971 51.972473,0.89900452 52.488692,1.9768339 z M 253.55119,1.5705839 C 255.31322,2.4425228 253.62197,7.70154 255.92619,4.7268339 C 260.14103,2.9310315 261.4406,0.56881761 255.26994,1.5393339 C 255.92574,2.0587018 253.04633,1.1137389 253.55119,1.5705839 z M 267.14494,1.5705839 C 268.94553,4.5711576 267.13811,8.842855 267.70744,11.476834 C 271.49374,14.710948 269.14366,20.541932 270.73869,24.289334 C 272.88175,23.187939 272.93588,28.808116 274.01994,26.195584 C 270.13945,24.464014 273.21454,19.218145 276.73869,21.383084 C 279.48402,21.778624 277.87461,24.734054 280.95744,24.070584 C 286.26364,19.743419 286.56073,12.507355 284.08244,6.5080839 C 283.18131,4.1432504 285.19045,-0.11851758 280.76994,1.5393339 C 276.23929,1.5603556 271.62329,1.4974209 267.14494,1.5705839 z M 386.67619,1.6643339 C 387.08701,1.5702228 386.47116,1.4687519 386.67619,1.6643339 z M 62.269942,14.258084 C 62.274282,14.689705 62.760418,13.95856 62.269942,14.258084 z M 319.45744,22.383084 C 317.55536,22.95108 318.00041,27.216365 319.23869,23.914334 C 319.35608,23.699965 320.75157,20.901667 319.45744,22.383084 z M 52.051192,22.133084 C 50.239845,21.76625 47.803408,25.218175 51.238692,24.320584 C 54.355673,23.727877 57.346435,26.205138 59.426192,22.726834 C 56.96974,22.438414 54.55667,21.909442 52.051192,22.133084 z M 154.89494,22.633084 C 155.03133,22.559065 154.39816,22.472537 154.89494,22.633084 z M 174.45744,54.414334 C 178.00265,54.885385 179.71713,58.178512 176.51994,60.539334 C 171.96569,63.948862 168.77322,54.417246 174.45744,54.414334 z M 102.17619,59.726834 C 107.05356,59.684637 111.11452,63.221121 115.95744,63.570584 C 116.42946,69.697654 108.89902,69.737936 105.08244,67.476834 C 101.9134,66.313 95.441951,62.338078 100.64494,60.039334 C 101.13733,59.874837 101.65521,59.734958 102.17619,59.726834 z M 191.26994,66.133084 C 189.42042,66.600313 188.9759,71.195216 191.33244,68.383084 C 192.74451,66.408876 195.31914,69.980385 197.20744,69.070584 C 195.3748,68.45163 193.11609,67.671736 192.33244,65.570584 L 191.44865,66.038472 L 191.26994,66.133084 z M 163.48869,67.351834 C 162.89011,67.910171 164.46851,67.493931 163.48869,67.351834 z M 340.64494,70.914334 C 333.39398,71.818941 349.42229,70.030607 342.90699,70.664843 C 342.15298,70.748006 341.39896,70.83117 340.64494,70.914334 z M 94.894942,71.883084 C 99.982192,71.92078 97.26341,79.633067 93.207442,78.820584 C 87.680475,81.320067 85.109135,89.130824 77.988692,87.851834 C 74.594526,88.541881 72.384591,84.023936 75.926192,82.570584 C 79.987724,80.154342 82.431322,75.989357 87.176192,74.508084 C 89.656224,73.367678 92.135598,72.114747 94.894942,71.883084 z M 172.86369,74.914334 C 170.68357,77.030632 174.19034,77.580356 175.17619,77.289334 C 174.4405,76.526958 173.52626,75.401917 172.86369,74.914334 z M 184.30119,78.320584 C 185.56154,79.541281 185.13901,76.737592 184.30119,78.320584 z M 104.33244,79.101834 C 108.13622,78.541729 112.79389,81.193779 111.89494,85.508084 C 108.00498,88.431553 99.036222,88.605512 99.176192,82.289334 C 99.730662,80.064708 102.26385,79.210528 104.33244,79.101834 z M 353.42619,82.726834 C 357.06655,82.493702 358.89527,86.963431 354.51994,88.070584 C 352.68213,88.745922 351.02247,88.717131 353.26994,90.195584 C 355.79903,93.267206 349.50969,96.756848 348.67619,92.258084 C 347.53029,89.690038 351.0859,89.012635 348.67619,87.164334 C 348.28571,84.690166 351.31514,82.953117 353.42619,82.726834 z M 225.51994,86.039334 C 233.88302,85.923533 242.45793,86.141061 250.26994,89.476834 C 239.02017,93.522843 226.77518,92.352292 215.05119,91.976834 C 211.60641,92.478403 209.53561,87.655022 213.45744,86.664334 C 217.35357,85.987129 221.54902,86.346631 225.51994,86.039334 z M 189.42619,86.914334 C 196.68767,86.874215 203.94872,86.964321 211.20744,87.164334 C 209.72942,94.807562 200.41359,92.336055 194.92619,93.508084 C 179.87784,94.314437 164.5843,95.47587 149.61369,93.664334 C 146.0374,93.331513 143.68532,86.282298 149.05076,87.97893 C 162.50857,87.583208 175.96172,87.041492 189.42619,86.914334 z M 96.332442,87.508084 C 108.42911,87.619802 120.40678,89.460224 132.20744,92.008084 C 130.62654,98.395569 122.92889,95.387085 118.23879,96.113085 C 100.47034,96.099573 82.495604,96.757051 65.019942,93.008084 C 71.96879,85.227475 83.099478,89.034789 92.144645,87.577451 C 93.540212,87.533017 94.936384,87.525511 96.332442,87.508084 z M 282.86369,93.820584 C 286.1148,92.945878 288.05616,97.531628 284.26994,98.351834 C 280.55574,99.264631 275.61384,102.9641 272.55119,98.726834 C 270.20513,95.138972 276.98903,94.429909 279.80119,94.039334 C 280.82289,93.971382 281.83715,93.806053 282.86369,93.820584 z M 382.80119,98.320584 C 384.88808,101.69512 379.55108,104.97211 378.36369,100.82058 C 377.35274,98.019432 383.49496,92.208778 382.80119,98.320584 z M 345.83244,96.445584 C 353.17412,96.184216 360.17079,98.809875 366.92619,101.38308 C 366.42677,105.66711 362.00894,106.32785 358.92619,104.60183 C 353.91374,103.44064 345.58193,105.96329 343.30119,99.883084 C 343.08326,98.018682 343.1881,95.827481 345.83244,96.445584 z M 53.332442,99.570584 C 58.650259,99.041796 63.608532,104.49901 68.394942,103.32058 C 71.955576,97.914154 77.715186,103.89692 81.676192,105.41433 C 82.324598,100.22438 90.59102,101.16781 91.082442,105.78933 C 94.392554,104.12117 99.043252,109.23904 94.551192,110.94558 C 92.562191,112.54269 90.077849,110.28267 89.769942,108.63308 C 84.111827,114.10057 74.921933,109.09928 69.238692,113.60183 C 68.318019,115.25269 66.639965,116.47482 64.738692,116.63308 C 72.087947,118.52195 80.674881,114.9551 87.082442,119.97683 C 90.740339,123.9512 85.129509,129.24622 80.769942,128.50808 C 70.818311,130.23907 60.820567,127.99469 51.988692,123.28933 C 53.427403,118.36576 58.562953,115.94895 63.426192,116.53933 C 60.175375,116.28552 58.311303,112.82373 56.894942,110.82058 C 53.539922,109.81216 46.157543,112.09012 46.269942,106.88308 C 47.842657,105.36676 48.29738,103.79167 49.082442,101.75808 C 49.975781,100.32927 51.696406,99.643824 53.332442,99.570584 z M 249.14494,101.22683 C 252.34139,101.1969 257.68622,105.97475 252.01994,106.63308 C 248.94367,109.35175 243.38861,105.40361 246.89494,102.16433 C 247.47329,101.58977 248.33357,101.26122 249.14494,101.22683 z M 228.14494,104.63308 C 231.77448,103.92591 234.51262,107.9498 230.36369,109.16433 C 227.74149,109.66723 223.08601,109.75972 224.01994,105.78933 C 225.29354,105.03179 226.63239,104.55631 228.14494,104.63308 z M 182.14494,109.63308 C 185.7035,110.53828 188.88991,109.19141 192.55119,110.13308 C 195.60154,108.10129 200.0418,112.34159 195.92619,114.35183 C 193.24013,115.64652 191.64703,111.07602 190.23869,113.94558 C 187.74445,115.41459 185.7034,112.72262 183.36369,114.28933 C 180.63061,115.42511 175.68322,112.71042 179.05119,110.22683 C 180.02737,109.77869 181.06986,109.62352 182.14494,109.63308 z M 143.11369,120.00808 C 147.0183,119.99931 149.54883,123.22519 153.36369,123.94558 C 157.78267,125.86086 154.76841,132.2688 150.39494,131.16433 C 145.14874,130.72318 138.54596,131.94725 134.45744,128.07058 C 131.70299,123.07751 139.25936,120.03776 143.11369,120.00808 z M 247.55119,120.50808 C 253.17259,119.74384 256.18557,126.79803 252.51994,130.72683 C 255.46884,134.40547 249.52932,140.20555 246.20744,136.03933 C 243.71952,133.31411 242.09858,129.39684 237.73869,129.94558 C 231.98183,129.04435 226.22438,131.14811 221.67619,134.32058 C 209.0384,134.38539 196.65669,128.8004 184.0314,131.5344 C 179.2211,131.49134 171.65471,133.64527 168.70744,128.72683 C 167.28608,122.33306 176.62746,118.82234 181.01994,122.91433 C 188.09237,126.59855 195.80587,123.4293 203.04898,122.44156 C 217.82733,121.08662 232.96818,122.92149 247.55119,120.50808 z M 110.70744,122.44558 C 114.1684,122.60839 116.40845,126.28232 113.01994,128.38308 C 109.12848,130.8278 105.84189,122.9399 110.70744,122.44558 z M 27.926192,125.60183 C 32.783417,125.94114 31.030827,132.35721 26.801192,132.47683 C 21.112948,132.80372 24.225075,125.60456 27.926192,125.60183 z M 225.14494,137.94558 C 228.69949,138.07022 229.32366,141.70938 226.26994,143.32058 C 224.70222,143.8484 221.89754,143.13832 222.48869,145.41433 C 225.081,146.28068 228.02894,145.5969 230.73869,145.66433 C 228.11451,151.57785 221.84839,152.4955 216.17619,152.47683 C 213.24119,152.30831 210.9175,157.81777 208.20744,154.07058 C 207.34449,152.38638 208.97744,149.72722 206.20744,151.41433 C 199.87678,151.7231 203.8846,142.47646 207.86369,144.50808 C 209.53986,138.35128 218.09486,139.13941 222.42619,140.78933 C 222.50725,139.36967 223.64571,137.89925 225.14494,137.94558 z M 176.98869,138.63308 C 181.69041,138.25195 186.07246,140.52998 189.33244,143.78933 C 184.80141,144.04935 179.87765,146.76269 180.30119,151.97683 C 180.64325,155.67608 174.90011,160.36494 172.98869,155.41433 C 172.11373,152.03866 172.49255,148.65242 170.55119,145.66433 C 169.24151,141.56992 173.28785,138.64596 176.98869,138.63308 z M 118.58244,143.22683 C 123.58925,143.11191 122.4153,151.37316 117.48869,150.53933 C 113.47647,151.60352 112.2048,146.26037 115.48869,144.50808 C 116.40504,143.88761 117.44801,143.27181 118.58244,143.22683 z M 88.426192,158.69558 C 86.706451,159.96818 89.647518,159.6614 88.426192,158.69558 z M 5.3949424,158.88308 C 0.6883616,159.29033 13.899513,159.29364 11.769942,159.25808 C 9.6504204,159.09296 7.525725,158.75582 5.3949424,158.88308 z "
     id="path2206" />
  <path
     style="fill:#a3a3a3;fill-opacity:1"
     d="M 105.58179,0.0087369348 C 105.71901,-0.031683765 105.73965,0.085639336 105.58179,0.0087369348 z M 6.4880394,1.0087369 C 3.9763304,2.2671241 -1.1387527,-0.35630309 0.3317894,4.2274869 C 3.1401146,6.6836138 10.643481,6.6946734 8.8630394,11.977487 C 11.993976,12.176413 18.156754,10.847122 18.050539,15.727487 C 18.351542,18.943561 12.781511,16.986329 11.488039,20.227487 C 9.8814954,22.201614 7.7873489,24.11591 10.206789,26.164987 C 12.313579,29.852861 9.9448764,34.569729 6.2380394,36.071237 C 5.7619968,39.555851 10.832055,37.983597 10.363039,42.008737 C 10.257528,44.161495 8.1706994,45.851323 6.7692894,46.727487 C 10.621385,49.303479 6.9084755,54.047591 3.0817894,52.789987 C -2.4357508,51.166502 1.7684687,60.928116 0.4567894,64.321237 C 0.2422214,68.906036 0.8731855,73.739614 0.1755394,78.196237 C 4.1440685,77.400212 11.2233,81.50968 8.3005394,85.914987 C 6.4244074,87.88586 2.8478423,87.644722 0.9567894,89.039987 C 2.9514781,91.806992 -1.0987901,98.585425 3.3005394,100.47748 C 7.216582,99.623887 12.537372,99.121327 14.456789,103.69623 C 15.722495,104.89658 15.634683,109.12288 17.019289,108.82123 C 22.275329,105.67729 26.038576,113.32884 31.175539,112.63373 C 35.159589,118.2252 26.44157,123.32037 24.956789,126.28998 C 27.613534,123.6537 34.004011,125.66501 31.613039,129.82123 C 29.863622,133.66753 23.574248,134.60985 23.238039,129.60248 C 24.601212,126.73667 18.890338,129.02159 21.175539,131.13373 C 19.55424,134.03042 13.776253,134.06139 15.394289,129.75873 C 10.649763,130.15372 4.8548274,128.056 0.7380394,129.94623 C 0.5235929,132.7071 -1.2783094,138.70552 3.5101758,137.42989 C 12.569424,138.8554 23.984427,135.88266 30.706789,143.72748 C 28.204669,148.5165 35.475051,144.09004 37.206789,146.94623 C 38.475922,148.87996 39.409887,151.41901 39.238039,153.69623 C 38.851049,156.37966 35.383999,153.1046 36.081789,156.16498 C 36.313823,158.14422 31.581796,160.17119 35.956789,159.28998 C 41.952153,159.25974 47.705309,157.34422 53.644289,159.25873 C 57.363911,160.38172 51.994602,156.15323 54.175539,154.22748 C 55.749549,152.85309 56.636803,152.05648 56.644289,149.82123 C 57.680464,147.19915 59.355966,144.66514 58.738039,141.66498 C 61.864333,141.34765 66.681103,145.0341 69.019289,142.28998 C 68.042769,138.95782 72.285572,136.55149 74.113039,139.03998 C 72.727311,137.4379 74.633246,133.4052 71.550539,135.13373 C 68.114417,136.18619 66.435459,131.33367 69.988039,130.22748 C 63.801385,129.2215 57.291558,127.39238 52.081789,124.03998 C 49.990224,122.18574 50.087096,118.43848 52.738039,117.13373 C 49.702854,116.70676 50.755251,112.70538 51.894289,111.16498 C 48.149531,112.31019 44.321884,109.60782 45.394289,105.60248 C 41.965954,110.31576 33.687928,113.38165 29.613039,107.75873 C 32.100856,101.38934 20.338836,96.735718 24.925539,90.321237 C 26.275422,88.05026 28.725033,89.140098 30.425539,88.789987 C 32.027041,87.046519 30.8028,86.63573 28.925539,86.352487 C 25.683554,84.474661 31.29166,81.252966 27.831789,80.571237 C 24.008896,78.089041 24.693337,72.385339 28.644289,70.602487 C 30.776444,68.006241 34.088618,62.580944 30.613039,60.008737 C 27.701831,57.550144 29.920665,51.858632 29.956789,48.227487 C 31.788082,43.417026 28.019918,37.043449 32.050539,33.258737 C 33.887858,32.42021 35.280387,35.175238 34.956789,32.039987 C 35.888202,29.767622 37.686862,29.360896 37.644289,26.602487 C 39.651852,20.351153 39.751213,12.212001 34.050539,7.7587369 C 35.097201,5.2007058 37.41143,3.6660271 39.269289,1.7587369 C 31.105754,1.4498791 22.318096,0.54455164 14.488039,2.1962369 C 11.634911,5.4794246 9.3122454,1.0928387 6.4880394,1.0087369 z M 0.5817894,4.6024869 C 0.4781462,4.6350007 0.6247198,4.6601487 0.5817894,4.6024869 z M 131.08179,1.2274869 C 125.54705,1.9313323 118.84345,0.52691894 113.92554,2.7587369 C 114.55157,5.2923114 115.3806,6.6952587 117.36304,8.2899869 C 120.34281,10.87431 116.52985,15.657768 113.36304,14.133737 C 112.21526,16.889565 108.64822,17.247945 106.67554,17.602487 C 110.28289,19.411551 117.19125,21.687485 114.26929,27.133737 C 112.22,33.634366 105.49912,37.59651 102.76929,43.258737 C 106.13917,40.180991 109.48037,32.314195 115.20679,35.446237 C 117.70147,37.109136 118.20128,39.686326 121.42554,38.539987 C 124.15971,38.447425 124.34823,43.901613 126.05054,39.633737 C 127.56859,37.371943 131.61748,36.678624 132.76929,35.539987 C 130.70147,34.322166 130.45752,33.233891 128.83179,35.414987 C 123.98254,38.865043 114.33811,32.001738 119.61304,26.852487 C 122.06521,25.156125 125.99062,22.451327 124.58179,27.696237 C 125.92024,29.540902 129.41105,30.649146 130.67554,31.852487 C 132.6893,28.677627 139.798,31.397216 138.98804,26.164987 C 140.33049,18.970464 134.01749,9.8481699 140.42554,4.0712369 C 144.31436,0.97057184 149.65896,4.0326508 153.55054,2.2587369 C 146.08612,1.4964804 138.59007,1.0730678 131.08179,1.2274869 z M 70.175539,1.3837369 C 71.185877,1.9903882 70.245868,1.0607763 70.175539,1.3837369 z M 169.39429,1.3837369 C 165.50068,1.5929661 160.15106,1.8869658 157.14429,2.2587369 C 160.08597,4.5073586 162.06373,8.0415298 166.37158,8.2212034 C 170.73975,9.5648689 160.65617,9.5175869 161.83179,12.258737 C 165.94833,12.119049 166.08104,13.606045 164.14429,16.946237 C 162.16548,21.645434 170.29418,18.421016 172.08179,20.008737 C 175.3521,22.811396 172.92371,31.847623 167.83179,28.352487 C 165.4309,24.943166 165.64757,31.259531 166.08179,32.914987 C 166.9503,35.166897 166.85654,35.205624 168.30054,33.289987 C 173.84929,30.988478 172.97703,41.008475 168.83179,41.008737 C 172.39864,40.875606 170.00674,46.738515 173.98804,46.446237 C 175.19554,47.305124 180.49069,49.788332 177.26929,47.196237 C 172.72195,44.60452 177.15947,39.631199 180.55054,38.696237 C 183.15938,38.435554 183.59555,31.62793 181.01929,34.602487 C 173.77752,38.656775 174.71282,22.505237 180.89429,28.758737 C 182.25592,30.896756 183.03813,35.218263 182.79056,29.977713 C 182.72525,23.102654 182.61708,16.187493 184.76929,9.8212369 C 184.56271,6.1818494 187.36725,0.88390904 191.64706,3.536678 C 192.45863,5.4164201 190.37386,9.6264809 192.51929,12.352487 C 195.11903,16.178024 196.08306,20.691133 197.48804,24.821237 C 200.38018,27.559234 202.34154,23.001323 202.36304,20.571237 C 203.84688,14.919384 201.9096,5.1848374 209.45679,3.4149869 C 212.83406,3.1253955 216.14713,2.1737672 219.55054,1.9149869 C 202.84156,1.1760617 186.10556,1.6482112 169.39429,1.3837369 z M 280.55054,1.4149869 C 276.57388,1.5748579 272.06616,1.1929141 268.39429,1.8212369 C 268.87581,3.4741378 267.87606,7.541905 269.48804,8.0399869 C 273.63162,2.988089 281.88767,7.071445 279.64429,13.508737 C 281.02155,12.166626 285.86618,12.990102 284.20679,9.3524869 C 283.57833,6.7314736 282.50106,4.1337205 282.76929,1.3837369 C 282.02971,1.3941536 281.29012,1.4045702 280.55054,1.4149869 z M 77.831789,3.4149869 C 75.80397,3.7516307 75.282737,3.422543 75.238039,5.6962369 C 72.644864,7.1297657 76.936547,8.4320943 77.363039,8.1337369 C 77.239301,6.5688902 77.817063,4.7415844 77.831789,3.4149869 z M 171.48804,3.6024869 C 176.86549,3.0575736 173.87674,13.41544 169.76929,8.6962369 C 167.96626,6.9978587 168.6989,3.5515164 171.48804,3.6024869 z M 34.113039,13.946237 C 39.162788,13.958492 37.429489,21.090386 32.925539,20.539987 C 27.747004,20.420874 30.501275,13.953918 34.113039,13.946237 z M 120.98804,14.727487 C 126.09292,16.454614 119.73252,22.664542 116.39429,22.946237 C 111.49306,22.278256 115.69824,17.147543 118.26929,16.008737 C 119.08777,15.453596 119.94203,14.723244 120.98804,14.727487 z M 2.8005394,22.539987 C 3.2144679,23.585945 4.4264206,24.591639 2.8005394,22.539987 z M 3.5192894,23.633737 C 3.476359,23.691399 3.6229326,23.666251 3.5192894,23.633737 z M 3.5192894,23.664987 L 3.4880394,23.633737 L 3.5192894,23.664987 z M 3.1442894,23.289987 C 3.0442404,23.590678 4.0628808,23.819448 3.1442894,23.289987 z M 3.0817894,23.664987 C 3.4156339,23.76808 2.744667,23.179254 3.0817894,23.664987 z M 3.3005394,23.664987 C 3.4415275,23.668695 3.1562439,23.520526 3.3005394,23.664987 z M 15.175539,25.227487 C 19.257936,25.47962 19.268316,31.171894 15.175539,31.539987 C 11.741053,31.284127 11.709394,25.384529 15.175539,25.227487 z M 72.988039,34.352487 C 70.832855,33.943546 67.361018,37.675199 68.331789,37.883737 C 74.385069,33.050841 82.515201,37.986767 89.269289,38.477487 C 90.467678,38.740857 96.188635,39.598543 92.363039,38.289987 C 85.93794,37.416923 79.518709,34.354925 72.988039,34.352487 z M 36.081789,37.102487 C 36.18375,40.609264 37.840412,35.896208 36.081789,37.102487 z M 117.64429,44.539987 C 115.61559,45.73186 119.64556,47.630098 118.20679,44.977487 C 118.05662,44.923349 117.81308,44.283403 117.64429,44.539987 z M 82.206789,45.758737 C 73.307867,48.027178 64.559462,52.39484 55.113039,50.664987 C 53.540291,51.987455 52.137527,54.371304 55.394289,53.227487 C 63.70835,52.465525 71.496617,47.805037 79.831789,47.977487 C 84.569806,50.952486 78.808122,56.543763 76.550539,59.196237 C 73.120559,62.7846 68.858934,65.955919 67.113039,70.821237 C 68.824649,67.700466 74.769271,67.543393 73.831789,72.102487 C 73.307094,76.529173 67.882274,83.104816 63.519289,78.696237 C 61.847175,77.838014 62.190205,72.312102 59.769289,74.946237 C 57.707069,77.550427 60.166879,79.766292 62.581789,80.446237 C 66.022064,83.167931 61.855742,86.960203 58.613039,86.539987 C 61.951445,87.082158 65.855605,85.276502 67.863039,89.164987 C 68.757566,92.747715 63.847738,94.949729 62.519289,91.196237 C 62.080673,87.33809 59.815308,89.50145 57.113039,90.821237 C 53.447678,91.980109 49.081881,95.624171 45.613039,94.289987 C 45.13638,93.169803 40.982813,91.99543 43.206789,93.883737 C 46.164151,95.49663 48.400069,98.993297 47.113039,102.38373 C 50.902923,97.801637 58.287324,97.346153 62.113039,102.00873 C 67.568828,103.71907 74.514957,97.799823 79.331789,103.03998 C 81.449649,106.677 82.476155,100.6271 85.206789,100.85248 C 89.091634,100.84019 90.591713,105.78019 94.831789,105.91498 C 101.76881,106.78075 107.76196,111.1222 115.05054,110.66498 C 119.84891,111.62065 125.93058,109.98986 129.92554,113.19623 C 130.2052,113.54776 133.60406,110.82951 135.83179,111.35248 C 140.8396,110.63872 145.77226,113.04283 150.17554,110.44623 C 153.28461,109.24355 155.84625,112.25186 158.61304,110.35248 C 161.5279,110.09423 163.75477,112.43574 166.58179,110.35248 C 179.04208,108.24875 191.98694,110.1184 204.38134,107.22333 C 218.60791,104.35759 232.9289,103.18995 247.26929,101.53998 C 250.77555,101.68306 257.89816,102.06008 254.83179,106.82123 C 257.27548,106.09581 260.36826,108.66203 262.36304,110.38373 C 259.69415,113.06514 253.29421,113.10698 253.39429,108.97748 C 250.21701,111.43451 247.96524,105.86301 244.42554,107.88373 C 237.57239,107.83984 230.97357,111.13372 224.30054,111.22748 C 226.54248,114.34334 218.32435,117.97758 218.61304,112.63373 C 220.21893,109.35277 216.78269,111.65079 214.92554,112.07123 C 212.09338,112.96553 207.79602,111.58893 205.76929,113.85248 C 206.13233,115.98519 206.03114,118.50354 204.80054,120.38373 C 207.11176,119.51365 212.13914,121.1384 212.95679,119.57123 C 212.03491,115.96392 217.47189,113.47081 219.08179,117.19623 C 218.60323,120.38885 218.09924,120.94269 222.55054,119.88373 C 224.5865,119.27271 227.55121,120.35285 226.70679,117.25873 C 227.2202,114.6053 230.29379,115.53497 231.51929,115.69623 C 234.53905,111.87315 239.37866,117.72038 237.92554,119.78998 C 243.90403,120.48604 251.98935,117.03999 256.45679,122.25873 C 260.166,117.44988 268.82364,122.18984 267.11304,127.78998 C 269.14811,127.23293 269.3614,127.19417 268.33179,125.22748 C 267.31403,120.50613 271.96378,117.52726 276.36127,118.63681 C 279.57981,119.4597 275.52407,115.09719 278.39429,114.03998 C 273.26986,112.82898 278.06569,107.77244 280.14429,107.10248 C 278.06278,103.5901 283.09489,101.9191 285.36304,104.25873 C 289.41679,105.36652 285.5894,109.61815 283.73804,109.85248 C 284.22842,112.60266 279.08187,113.45253 282.51929,114.97748 C 284.04356,119.08411 287.38817,118.30714 291.20422,117.9904 C 296.69218,118.57658 302.36355,116.22952 307.58179,117.75873 C 310.84337,119.23608 310.64436,126.82191 315.14429,124.75873 C 317.81352,122.71096 322.42831,122.51782 323.86304,125.69623 C 322.24702,122.35034 326.88441,118.29205 328.55054,122.53998 C 329.96135,123.87456 327.73354,128.25898 330.11304,125.66498 C 332.49834,124.5359 334.66295,122.44221 336.67554,121.35248 C 333.21661,119.48241 333.57302,113.84719 338.17554,114.07123 C 345.57439,112.51092 353.39091,114.45725 360.76929,112.50873 C 365.50424,112.36362 370.71124,114.21148 375.14429,112.63373 C 373.34059,110.63091 377.79387,108.73065 374.80054,108.07123 C 372.0996,106.40688 371.0925,102.93708 371.20679,100.10248 C 369.18778,100.49723 365.87909,98.891787 367.89429,101.85248 C 366.85854,106.96739 360.17811,105.20163 356.36304,105.03998 C 353.75005,105.14558 349.78482,104.05165 348.14429,104.28998 C 350.29537,108.14618 342.18801,110.35097 342.58179,105.35248 C 342.4792,103.31277 345.0143,102.56015 342.51929,101.25873 C 340.49357,97.647998 345.90906,94.540172 348.89429,95.727487 C 348.65403,93.305344 347.45781,90.110075 344.51929,91.508737 C 340.10859,92.154647 334.23655,96.059629 330.26929,93.196237 C 327.48509,89.277789 332.8724,86.828433 336.20679,87.352487 C 338.58607,87.202733 341.6904,87.142041 341.70679,84.196237 C 345.50672,81.252781 351.49,85.480998 354.80054,81.227487 C 360.92603,76.429099 367.16718,70.848093 375.33179,70.602487 C 378.09185,69.349553 383.06408,67.285929 382.95679,63.852487 C 375.00694,67.068508 365.96579,68.990123 357.20679,69.727487 C 363.97982,70.453485 368.07671,71.607449 359.08005,73.721187 C 329.7869,84.167483 298.30234,86.140698 267.67554,89.946237 C 261.83081,88.498325 254.00637,88.202314 249.05054,88.321237 C 250.04564,93.929414 241.53498,91.478605 238.27074,92.272372 C 211.1377,92.354913 183.99278,94.163257 156.92554,94.914987 C 153.77151,94.230331 145.88846,95.02116 147.05054,89.946237 C 151.74513,85.895209 159.33472,88.405063 165.07839,87.178542 C 190.72484,86.02394 216.42403,85.842014 242.08179,86.414987 C 231.734,84.371392 240.53774,82.690808 242.11655,82.623725 C 201.88245,85.983422 161.37708,87.122751 121.08179,87.477487 C 117.90945,86.9932 116.89291,82.551636 115.26929,81.102487 C 114.58248,88.113063 102.31168,90.088429 99.519292,83.727487 C 98.686662,79.73985 103.24565,77.234193 106.73804,78.883737 C 110.9759,80.958992 108.95209,76.29441 107.33179,74.821237 C 105.42324,73.992046 104.74903,68.208169 103.14429,71.696237 C 100.61829,73.151024 98.929272,74.878454 96.925539,77.258737 C 92.973585,80.269928 87.091112,81.896341 85.613039,87.008737 C 102.45103,87.102831 119.79915,87.210877 135.86304,92.508737 C 142.5197,95.581005 133.43516,97.315124 130.20711,96.871513 C 110.41161,96.141417 90.351365,96.691382 70.738039,94.071237 C 66.325507,93.59355 67.633422,87.265977 71.827038,87.817626 C 76.16008,88.724226 71.069653,84.947428 73.831789,83.102487 C 78.379942,78.352557 84.958004,75.947258 90.488039,72.477487 C 92.987042,70.923375 97.231884,71.035926 98.956792,72.071237 C 97.143372,68.91643 102.61186,66.406731 99.675542,64.164987 C 96.847659,61.468582 99.878472,57.273785 103.30054,59.352487 C 107.05049,61.279838 102.53872,56.702057 101.61304,55.602487 C 99.161562,53.283709 95.406193,49.575079 92.456789,49.727487 C 89.75045,54.930952 80.921573,50.727156 82.206789,45.758737 z M 124.11304,45.914987 C 123.41656,46.891082 125.1229,46.362329 124.11304,45.914987 z M 121.33179,48.946237 C 119.34072,48.382503 122.4819,53.323941 121.42554,49.758737 C 121.32712,49.638371 121.59232,48.838862 121.33179,48.946237 z M 16.206789,56.227487 C 20.031177,57.288565 19.429963,61.795028 15.613039,62.227487 C 11.014506,62.790794 12.344961,55.55039 16.206789,56.227487 z M 104.51929,67.821237 C 104.27576,69.792811 105.25953,67.20613 104.51929,67.821237 z M 75.988039,71.571237 C 80.265243,69.906 81.064217,76.797762 76.894289,76.289987 C 73.866674,76.465668 72.128067,71.929766 75.988039,71.571237 z M 309.11304,75.383737 C 293.49705,77.775033 277.65683,78.668185 261.95679,80.696237 C 278.00871,79.379423 294.2432,78.953349 309.92554,75.258737 L 309.11304,75.383737 z M 334.89429,81.446237 C 339.02695,81.046799 338.13633,87.322324 334.23804,86.946237 C 331.38568,88.703952 326.60496,85.512272 330.39429,83.039987 C 331.76128,82.228842 333.32663,81.659631 334.89429,81.446237 z M 402.39429,81.696237 C 400.45858,81.94384 399.74512,85.572617 398.98804,86.352487 C 401.04609,88.922205 402.71821,93.330278 405.36304,95.039987 C 405.49089,90.831624 406.75384,84.515283 403.05054,81.696237 C 402.84023,81.686797 402.60013,81.618988 402.39429,81.696237 z M 390.08179,82.446237 C 388.78527,82.526319 391.44764,84.848595 390.08179,82.446237 z M 382.36304,82.696237 C 383.51569,83.491843 383.98006,81.872186 382.36304,82.696237 z M 282.45679,92.946237 C 285.374,92.20119 291.48284,94.175373 287.58179,97.477487 C 283.48941,98.58948 279.57047,101.30186 275.42554,100.88373 C 271.13223,100.74053 271.87844,95.159984 275.58179,94.602487 C 277.75793,93.700638 280.0891,93.046454 282.45679,92.946237 z M 401.17554,94.602487 C 401.56482,96.629973 404.63403,97.682481 404.39429,100.28998 C 406.39096,96.798423 405.40828,95.550705 401.17554,94.602487 z M 310.83179,96.602487 C 313.8108,96.501286 318.00323,99.892847 313.30054,101.35248 C 310.20487,103.73678 306.86125,102.3059 303.39429,103.22748 C 299.17389,103.57623 299.95161,97.460825 303.89429,98.477487 C 306.18966,98.947207 307.41493,99.658957 308.70679,97.414987 C 309.29635,96.954928 310.0815,96.638083 310.83179,96.602487 z M 386.11304,99.946237 C 386.33069,99.947877 386.12133,99.794627 386.11304,99.946237 z M 91.519289,111.22748 C 86.869677,111.84141 89.27189,117.78597 89.925539,120.72748 C 91.309835,126.47946 85.575676,131.00191 80.081789,129.66498 C 76.887187,129.04207 74.059052,130.03426 76.300539,132.57123 C 79.736653,133.94799 78.782488,142.00689 74.550539,139.57123 C 75.941444,142.45863 78.035001,142.09751 80.613039,141.13373 C 87.478451,139.5789 94.349651,143.15443 98.925542,147.60248 C 101.73159,146.99596 105.09541,149.62281 106.30054,146.19623 C 108.92513,143.20336 110.10277,149.20014 110.61304,147.07123 C 113.705,141.41432 123.51251,139.88063 126.80054,145.94623 C 127.87779,148.92081 123.85295,150.35284 122.89429,151.53998 C 125.50873,154.71084 119.76113,159.96736 118.14429,155.32123 C 117.54007,153.90599 118.51347,150.73976 116.86304,153.35248 C 114.35194,155.29012 111.27031,151.28495 110.39429,150.66498 C 111.04112,153.70008 107.19131,155.27537 105.76929,152.88373 C 103.90558,155.54143 99.675272,155.901 98.644292,159.00873 C 112.18704,159.55188 126.4238,159.52553 139.55054,159.10248 C 138.87564,153.12538 133.69775,145.44403 138.86304,140.38373 C 145.6626,137.6487 156.71002,135.82088 160.51929,143.97748 C 163.3835,149.47936 155.43525,149.1033 152.26929,150.78998 C 151.23249,152.57577 155.72953,154.55731 156.18272,156.47452 C 157.51552,158.98147 149.23086,153.20968 149.42554,158.22748 C 149.29841,160.73847 154.30544,158.21458 155.61304,159.28998 C 159.49646,159.06072 164.64259,160.25532 167.80054,158.69623 C 168.31509,156.2576 171.96998,157.54686 170.83179,154.57123 C 172.51301,150.3371 169.28405,147.37997 168.98804,143.53998 C 170.32454,136.64734 179.78119,136.56241 185.11304,138.25873 C 190.65446,139.63136 185.74482,145.15602 184.05054,148.25873 C 183.29206,149.66049 180.74981,153.48264 181.73804,154.07123 C 184.62155,153.09252 189.76805,154.06388 190.26929,157.44623 C 187.29747,160.33521 192.3415,158.48737 194.05054,159.22748 C 197.58172,159.06093 203.60743,161.15642 205.51929,157.38373 C 203.17727,155.23743 206.43946,152.55438 207.33179,152.25873 C 204.90147,151.66544 199.27525,150.46717 201.73804,146.60248 C 203.5387,144.70308 206.43815,144.20473 206.51929,141.28998 C 208.5173,137.84781 214.07434,139.94311 214.95679,136.13373 C 217.21244,134.89651 218.37515,135.10893 215.05054,134.66498 C 204.4532,132.2777 193.81175,131.11853 182.86304,132.22748 C 178.10227,131.6464 172.35337,133.93953 168.23804,130.91498 C 164.77738,127.38439 168.49735,121.6223 172.01929,120.32123 C 169.94968,116.75142 175.43735,113.8759 177.52611,117.41235 C 178.76058,118.76357 174.33223,121.04289 178.25659,121.14567 C 185.52469,123.86555 193.72433,124.79787 200.80054,121.13373 C 202.90316,120.96775 199.03979,119.22871 199.20679,118.13373 C 197.84207,115.46083 195.43227,113.51828 192.39429,114.94623 C 183.00176,115.7784 172.7468,116.0471 163.92554,114.28998 C 162.31521,117.71886 156.94062,116.33344 155.11304,114.53998 C 151.81741,116.92997 147.52481,114.61091 144.76929,116.00873 C 146.18191,117.96804 143.71159,120.16841 147.08179,119.91498 C 151.73226,121.42303 160.56236,122.23996 158.64429,128.97748 C 157.10315,131.93215 154.12319,133.27919 152.80054,136.32123 C 149.78303,138.92798 147.77226,134.87327 147.92554,132.35248 C 143.43811,129.75402 134.74638,133.9286 132.64429,127.35248 C 131.13233,122.60724 136.97637,120.1221 139.98804,119.16498 C 139.79686,117.42711 140.34415,115.91171 137.89429,116.72748 C 129.9521,116.17374 122.34722,117.0319 114.33179,116.41498 C 114.25891,120.93866 121.52025,125.51842 116.11304,128.94623 C 112.84311,131.80136 106.83414,130.02501 107.48804,125.10248 C 107.61042,122.0524 108.67616,119.05562 110.48804,116.60248 C 106.66905,116.80783 102.11795,116.53472 99.644292,113.25873 C 96.994134,112.44135 94.358717,111.12978 91.519289,111.22748 z M 217.86304,135.07123 C 218.03023,135.13153 217.82357,134.97366 217.86304,135.07123 z M 76.613039,112.22748 C 76.240802,115.05566 78.04535,117.23151 81.019289,116.32123 C 79.450669,114.39441 84.332547,111.82444 80.706789,112.35248 C 79.397319,112.27993 77.652966,112.41161 76.613039,112.22748 z M 151.42554,113.13373 C 154.66376,115.08093 154.00932,110.7736 151.42554,113.13373 z M 262.01929,113.16498 C 264.83543,112.98833 268.95368,117.7444 264.39429,118.38373 C 261.5429,121.10023 256.61721,117.47511 259.61304,114.28998 C 260.30093,113.70562 261.08687,113.16172 262.01929,113.16498 z M 56.456789,115.16498 C 56.446446,117.47645 58.5039,112.64237 56.651855,114.75534 L 56.456789,115.16498 z M 127.64429,127.03998 C 130.58069,127.39412 136.21161,130.45683 131.17554,132.32123 C 127.26993,135.69434 121.65532,128.3928 127.64429,127.03998 z M 324.98804,128.66498 C 326.245,131.45328 321.17213,132.56968 323.80054,134.38373 C 325.64425,137.56149 320.72403,140.95834 320.92554,142.78998 C 325.56573,143.99096 321.77591,149.71583 321.42554,152.00873 C 323.55633,150.66414 325.66179,154.17066 325.70679,154.03998 C 327.01569,152.75143 329.09219,151.82433 330.73804,151.82123 C 328.98794,149.72489 329.82471,146.33649 326.58179,146.94623 C 322.87113,144.3112 327.10177,139.07953 329.76929,142.50873 C 331.53653,140.69668 333.48402,142.87227 334.33179,139.88373 C 335.62665,138.85688 331.29094,137.41135 331.39429,135.44623 C 328.49121,135.09336 325.43375,132.16422 327.05054,129.10248 C 326.34522,129.24402 325.29605,128.912 324.98804,128.66498 z M 83.050539,129.78998 C 87.614852,130.33939 86.537247,135.96763 82.269289,136.13373 C 76.855079,136.7784 78.854259,129.28179 83.050539,129.78998 z M 108.76929,129.91498 C 113.48758,129.70597 113.21149,136.65228 108.45679,136.41498 C 103.10212,136.96461 104.5345,130.03327 108.76929,129.91498 z M 233.98804,130.32123 C 229.066,129.52318 226.97496,135.36116 222.11304,135.16498 C 220.79921,134.66408 223.85617,137.593 224.58179,136.82123 C 228.76336,134.69065 232.10474,139.43339 230.83179,143.32123 C 231.88985,148.94324 225.40163,151.33238 226.33179,156.88373 C 227.05203,160.89047 232.989,158.36648 235.92511,159.31938 C 246.40307,159.40554 257.09225,159.39579 267.42554,159.22748 C 272.75929,157.85601 275.64977,152.37778 279.48804,149.13373 C 278.79403,143.23216 269.91132,141.73999 269.98804,135.57123 C 270.40593,133.71571 271.98186,132.2979 269.20679,133.32123 C 267.27355,133.63285 270.52082,137.38298 269.95679,139.35248 C 270.62781,146.25916 261.56644,149.56182 256.86614,145.06091 C 251.37849,142.78981 259.5999,143.39787 259.08179,139.72748 C 257.35602,144.35097 250.81863,140.39612 253.51929,136.63373 C 254.60056,135.31601 253.99002,132.4082 256.76929,132.25873 C 259.49601,131.5968 254.88266,129.52665 254.39429,131.85248 C 254.76152,134.86465 252.23375,138.37619 249.01929,138.10248 C 253.26035,139.10203 244.55739,143.17004 248.61304,141.63373 C 251.61122,140.11954 255.91607,143.16587 253.45679,146.35248 C 251.57828,149.20403 242.47059,147.9594 245.55054,143.19623 C 248.8374,141.15277 244.73894,143.60474 243.51929,141.63373 C 241.40621,139.67835 243.35676,135.93525 245.73804,136.03998 C 243.35233,131.82508 238.66816,129.94676 233.98804,130.32123 z M 341.76929,134.41498 C 341.64287,136.29756 342.75243,133.82871 341.76929,134.41498 z M 339.83179,141.72748 C 338.45265,144.75402 341.98804,141.06443 340.89429,139.78998 C 340.54012,140.43581 340.18596,141.08165 339.83179,141.72748 z M 104.33179,140.72748 C 107.96287,140.89468 108.43564,144.59508 105.36304,146.19623 C 101.14459,148.23296 100.14764,140.93022 104.33179,140.72748 z M 188.33179,146.72748 C 190.62495,147.32776 192.42155,148.67116 194.48804,149.60248 C 197.95972,152.60703 189.46761,158.50791 188.92554,152.85248 C 187.87362,152.85041 184.33041,151.08173 185.89429,148.47748 C 186.26459,147.53395 187.27089,146.72474 188.33179,146.72748 z M 104.48804,149.28998 C 105.38343,150.3438 105.03743,147.1361 104.48804,149.28998 z M 325.26929,156.16498 C 325.48362,156.24885 325.1825,155.65481 325.26929,156.16498 z "
     id="path2204" />
  <path
     style="fill:black"
     d="M 18.801237,136.75444 C 17.344787,135.298 18.284097,132.3168 21.181667,129.19939 C 22.857577,127.39634 26.949167,122.65675 30.274087,118.66697 C 36.688317,110.97012 40.507427,108.84297 42.650397,111.77365 C 43.312957,112.67975 44.367947,113.42111 44.994807,113.42111 C 45.621677,113.42111 46.134567,114.1244 46.134567,114.98397 C 46.134567,115.86975 45.376407,116.47403 44.384567,116.37881 C 41.963167,116.14632 38.134567,117.46883 38.134567,118.53774 C 38.134567,119.02359 37.234567,120.32111 36.134567,121.42111 C 35.034567,122.52111 34.134567,124.29455 34.134567,125.36209 C 34.134567,126.42963 33.613677,127.625 32.977047,128.01846 C 32.183957,128.50862 31.997057,128.05493 32.383427,126.57748 C 33.071127,123.94771 31.506817,123.67291 30.679917,126.27823 C 30.270557,127.56801 29.397617,128.00289 27.822427,127.70177 C 26.173977,127.38665 25.191597,127.94603 24.226517,129.7493 C 22.254957,133.43319 23.560547,134.68779 27.606497,132.99728 C 29.457217,132.224 31.226157,131.84603 31.537457,132.15734 C 32.445467,133.06535 28.837467,135.35456 26.443587,135.38931 C 25.238547,135.4068 23.974487,135.87111 23.634567,136.42111 C 22.936227,137.55105 19.813217,137.76643 18.801237,136.75444 z M 114.63456,114.53829 C 107.49449,114.09762 103.92744,113.42062 102.16205,112.17111 C 100.80218,111.20861 98.466232,110.42111 96.971073,110.42111 C 95.475913,110.42111 93.974483,109.97111 93.634563,109.42111 C 93.294643,108.87111 92.212833,108.42111 91.230533,108.42111 C 90.248233,108.42111 88.630053,107.52111 87.634563,106.42111 C 85.410833,103.96391 82.558663,103.84086 81.268393,106.14645 C 80.354083,107.78023 80.110853,107.78023 76.684783,106.14645 C 72.438253,104.12142 68.867983,103.94614 66.171233,105.63028 C 64.611173,106.60456 63.564933,106.5199 60.785523,105.19449 C 55.772883,102.80413 50.676307,102.06081 48.239867,103.36476 C 46.595827,104.24462 46.134567,104.20351 46.134567,103.17714 C 46.134567,102.45425 44.523377,100.204 42.554147,98.176582 C 38.087637,93.578082 38.864767,91.473222 43.883827,94.575162 L 47.474717,96.794462 L 48.926617,94.607782 C 49.943037,93.076972 51.391707,92.421112 53.756533,92.421112 C 57.894433,92.421112 58.493853,89.714872 54.461683,89.237532 C 52.991593,89.063502 51.591767,88.321622 51.350947,87.588912 C 51.014827,86.566222 52.134857,86.333892 56.171793,86.588912 C 61.976993,86.955632 64.123803,85.127922 59.812983,83.488952 C 56.482153,82.222572 55.856083,80.965512 56.682413,77.203242 C 57.252473,74.607802 57.584713,74.295462 58.517923,75.477642 C 59.144623,76.271552 61.141273,77.966702 62.954923,79.244632 C 65.591163,81.102192 66.542823,81.327172 67.700353,80.366512 C 69.174483,79.143092 71.593173,75.233562 72.693913,72.295012 C 73.028923,71.400662 74.390123,70.087122 75.718793,69.376032 C 78.231103,68.031482 78.945093,66.421112 77.028923,66.421112 C 75.981783,66.421112 71.512653,69.659262 68.050673,72.926382 C 67.179533,73.748482 65.933463,74.421112 65.281623,74.421112 C 62.757093,74.421112 65.593793,68.757362 70.829283,63.344682 C 73.795913,60.277642 77.215723,56.313932 78.428863,54.536432 C 80.468423,51.548062 80.954693,51.345232 84.884563,51.843742 C 88.676743,52.324782 89.134563,52.162212 89.134563,50.334592 C 89.134563,46.492452 93.739423,49.209772 102.74575,58.366532 C 106.43758,62.120032 107.32528,65.125292 104.38456,63.914652 C 99.052042,61.719352 97.974492,62.384982 100.18238,66.510462 C 100.97801,67.997112 100.85767,68.840862 99.682382,70.016152 C 98.831082,70.867452 98.134562,72.217202 98.134562,73.015592 C 98.134562,74.235542 98.532702,74.206352 100.6292,72.832672 C 103.04497,71.249802 103.21885,71.299832 106.1292,74.415372 C 107.79001,76.193282 109.13456,78.737562 109.13456,80.102402 C 109.13456,82.401202 108.8253,82.553152 104.66709,82.297442 C 99.386462,81.972712 98.679482,82.471802 99.543522,85.914402 C 100.13418,88.267792 100.52794,88.447002 103.91362,87.903362 C 112.29879,86.556942 112.37541,86.516882 111.70145,83.831602 C 110.32,78.327462 114.7993,78.783302 117.11873,84.382902 L 118.3772,87.421112 L 137.50588,87.414422 C 194.56892,87.394452 265.90961,81.905972 332.13456,72.440982 C 336.25956,71.851432 344.80956,70.962892 351.13456,70.466462 C 366.41312,69.267292 372.88632,68.039632 378.00864,65.369732 C 384.86494,61.796022 385.89661,65.516212 379.75299,71.659832 C 378.91735,72.495462 376.17766,73.487482 373.66478,73.864312 C 367.64876,74.766472 358.13456,79.169002 358.13456,81.050652 C 358.13456,81.866262 356.03085,83.464142 353.45964,84.601512 C 349.40465,86.395232 347.58131,86.585492 339.70964,86.036342 C 334.24757,85.655282 330.03737,85.798812 329.13456,86.396862 C 328.03002,87.128532 328.95276,87.424932 332.63456,87.521152 C 339.23163,87.693552 339.55054,87.753082 340.13456,88.921112 C 340.42424,89.500472 338.13982,90.189022 334.70384,90.558022 C 330.99432,90.956392 328.33136,91.799072 327.5936,92.808022 C 326.94486,93.695222 325.67618,94.421112 324.77432,94.421112 C 322.72127,94.421112 322.6271,96.012402 324.63456,96.782742 C 329.78463,98.946062 315.10896,99.594812 309.59964,100.53557 C 305.21884,101.17703 300.50956,102.16368 299.13456,102.72814 C 297.75956,103.2926 295.28456,103.84301 293.63456,103.95129 C 291.98456,104.05956 287.70956,104.62511 284.13456,105.20806 C 280.55956,105.79101 273.44409,106.55229 268.32241,106.89978 C 263.20073,107.24727 258.30565,107.80196 257.44445,108.13244 C 256.48663,108.49999 255.22317,107.86432 254.19055,106.49534 C 252.56207,104.33641 252.22234,104.29468 244.56851,105.31341 C 240.20484,105.89422 229.94647,107.06729 221.77214,107.92025 C 213.59781,108.7732 206.09124,109.90911 205.09087,110.44449 C 203.03049,111.54717 176.69436,113.37419 155.43175,113.8895 C 147.6202,114.07882 137.4952,114.44111 132.93175,114.69459 C 128.3683,114.94808 120.13456,114.87774 114.63456,114.53829 z M 278.13456,100.92111 C 278.81925,100.09611 280.3995,99.421112 281.64622,99.421112 C 282.89294,99.421112 284.97534,98.486922 286.27378,97.345142 L 288.63456,95.269172 L 286.13456,95.934422 C 284.75956,96.300312 281.38456,96.967182 278.63456,97.416372 C 275.88456,97.865562 272.83383,98.553602 271.85517,98.945362 C 270.14932,99.628212 270.14932,99.713432 271.85517,101.00757 C 274.21348,102.7967 276.60529,102.76377 278.13456,100.92111 z M 134.97203,96.492202 C 135.83671,96.008302 133.93348,95.430422 130.01498,94.987092 C 126.51664,94.591302 123.1425,93.842662 122.51688,93.323452 C 120.29589,91.480192 94.278053,90.171762 79.634563,91.166912 C 71.934563,91.690192 65.484563,91.736462 65.301233,91.269722 C 64.758423,89.887822 61.134563,90.303872 61.134563,91.748092 C 61.134563,93.986832 76.006063,95.742552 100.13456,96.352412 C 112.50956,96.665202 125.09469,97.001342 128.10151,97.099392 C 131.10833,97.197452 134.20006,96.924212 134.97203,96.492202 z M 189.13456,94.016772 C 190.47526,93.492552 216.37886,92.731342 240.58456,92.504852 C 247.2884,92.442132 249.24821,92.134772 248.3936,91.280152 C 246.66567,89.552222 221.43082,89.300682 181.38456,90.612192 C 154.34815,91.497632 146.13456,92.059682 146.13456,93.024322 C 146.13456,93.716052 147.14706,94.485992 148.38456,94.735292 C 151.51642,95.366242 187.29683,94.735342 189.13456,94.016772 z M 280.29282,88.905622 C 322.61111,83.709182 332.91518,81.861252 351.63456,76.111162 C 359.4457,73.711792 359.66427,73.617492 358.98615,72.939372 C 358.04316,71.996382 314.57243,76.446712 311.13456,77.838202 C 309.20956,78.617352 302.90956,79.941182 297.13456,80.780052 C 277.24721,83.668862 276.70705,83.723912 256.63456,84.907562 C 250.58456,85.264322 244.05956,85.896782 242.13456,86.313032 C 239.15218,86.957922 240.11348,87.243652 248.63456,88.245032 C 254.13456,88.891382 260.20956,89.573402 262.13456,89.760632 C 264.05956,89.947852 266.15578,90.173062 266.79282,90.261082 C 267.42986,90.349102 273.50486,89.739142 280.29282,88.905622 z M 84.384563,86.288042 C 85.347063,85.139372 86.134563,83.639952 86.134563,82.956012 C 86.134563,82.272062 88.272063,81.032812 90.884563,80.202122 C 94.360993,79.096732 95.720243,78.119252 95.954113,76.556442 C 96.129863,75.382012 95.782483,74.421112 95.182153,74.421112 C 92.923843,74.421112 80.782463,80.509242 75.914683,84.082522 C 71.520423,87.308202 71.103423,87.900312 72.744683,88.583642 C 75.849853,89.876462 82.472103,88.570422 84.384563,86.288042 z M 70.134563,87.421112 C 70.134563,86.871112 69.658003,86.421112 69.075543,86.421112 C 68.493083,86.421112 68.294643,86.871112 68.634563,87.421112 C 68.974483,87.971112 69.451043,88.421112 69.693583,88.421112 C 69.936123,88.421112 70.134563,87.971112 70.134563,87.421112 z M 79.055613,73.635932 C 79.007603,72.593012 78.779043,72.410892 78.472283,73.171112 C 78.194873,73.858612 77.131953,74.421112 76.110243,74.421112 C 73.869463,74.421112 72.617183,76.069312 74.378333,76.700572 C 76.319533,77.396382 79.143553,75.546022 79.055613,73.635932 z M 43.134567,106.92111 C 43.134567,106.09611 43.795447,105.42111 44.603177,105.42111 C 45.497777,105.42111 45.846817,106.0074 45.496197,106.92111 C 45.179607,107.74611 44.518737,108.42111 44.027577,108.42111 C 43.536427,108.42111 43.134567,107.74611 43.134567,106.92111 z M 106.13456,70.421112 C 106.13456,69.871112 106.80956,69.421112 107.63456,69.421112 C 108.45956,69.421112 109.13456,69.871112 109.13456,70.421112 C 109.13456,70.971112 108.45956,71.421112 107.63456,71.421112 C 106.80956,71.421112 106.13456,70.971112 106.13456,70.421112 z M 50.134567,55.477812 C 50.180377,52.394232 68.801643,34.554192 58.203513,51.048132 C 56.840653,53.169162 64.870993,50.776742 71.124263,48.977732 C 81.778583,45.912572 84.889683,45.886482 81.416813,48.891432 C 79.107863,50.889282 75.549893,52.018192 60.895153,55.402732 C 50.186057,57.876012 50.134567,57.876372 50.134567,55.477812 z M 101.8822,45.835412 C 100.60433,44.557552 101.01171,43.726502 105.10703,39.256762 C 107.29189,36.872152 109.82359,33.346112 110.73302,31.421112 C 111.64246,29.496112 114.12984,26.216903 116.26055,24.133983 C 118.39126,22.051073 120.13456,19.715123 120.13456,18.943003 C 120.13456,16.619153 121.90324,16.250133 125.10519,17.905923 C 129.35761,20.104943 129.25539,23.795043 124.88456,25.870573 C 120.80123,27.809582 105.76173,41.261832 103.6322,44.879992 C 103.0809,45.816672 102.2934,46.246612 101.8822,45.835412 z M 88.134563,42.514902 C 86.222433,41.437242 74.497153,39.141332 70.884563,39.137212 C 68.040653,39.133962 67.718163,38.669802 68.729233,36.035002 C 69.479823,34.078992 75.199103,34.598682 86.884563,37.684712 C 94.753223,39.762762 97.000213,41.491222 93.552773,42.814122 C 91.451233,43.620562 89.949183,43.537612 88.134563,42.514902 z "
     id="path2180"
     sodipodi:nodetypes="cssssssssssssssssssccsssssssssssscccsssssssssssssssssssssssssssssscccssssssssssssssccsssssssssssccscccsssccsssssssccsssssccsssssssssccssssssccsssccsssccsssccsssccssssccsssssssccssssc" />
</svg>
